<?xml version="1.0" encoding="UTF-8" standalone="no"?>
<!-- Created with Inkscape (http://www.inkscape.org/) -->

<svg
   xmlns:dc="http://purl.org/dc/elements/1.1/"
   xmlns:cc="http://creativecommons.org/ns#"
   xmlns:rdf="http://www.w3.org/1999/02/22-rdf-syntax-ns#"
   xmlns:svg="http://www.w3.org/2000/svg"
   xmlns="http://www.w3.org/2000/svg"
   xmlns:sodipodi="http://sodipodi.sourceforge.net/DTD/sodipodi-0.dtd"
   xmlns:inkscape="http://www.inkscape.org/namespaces/inkscape"
   width="12mm"
   height="12mm"
   viewBox="0 0 12 12"
   version="1.1"
   id="svg8"
   inkscape:version="0.92.4 (5da689c313, 2019-01-14)">
  <defs
     id="defs2" />
  <sodipodi:namedview
     id="base"
     pagecolor="#ffffff"
     bordercolor="#666666"
     borderopacity="1.0"
     inkscape:pageopacity="0.0"
     inkscape:pageshadow="2"
     inkscape:zoom="30.391959"
     inkscape:cx="22.874992"
     inkscape:cy="20.905188"
     inkscape:document-units="mm"
     inkscape:current-layer="layer1"
     showgrid="false"
     inkscape:window-width="3840"
     inkscape:window-height="2115"
     inkscape:window-x="-13"
     inkscape:window-y="-13"
     inkscape:window-maximized="1" />
  <metadata
     id="metadata5">
    <rdf:RDF>
      <cc:Work
         rdf:about="">
        <dc:format>image/svg+xml</dc:format>
        <dc:type
           rdf:resource="http://purl.org/dc/dcmitype/StillImage" />
        <dc:title></dc:title>
      </cc:Work>
    </rdf:RDF>
  </metadata>
  <g
     inkscape:label="Layer 1"
     inkscape:groupmode="layer"
     id="layer1"
     transform="translate(0,-285)">
    <circle
       style="opacity:0.98000004;fill:#ff5d5d;fill-opacity:1;stroke:#ffffff;stroke-width:0.10536566;stroke-miterlimit:4;stroke-dasharray:none;stroke-opacity:1;paint-order:fill markers stroke"
       id="path848"
       cx="5.9642243"
       cy="291.00726"
       r="5.9473171" />
    <path
       id="path850"
       d="m 8.5092417,294.04302 -1.48299,-2.20716 1.1729,-0.50615 a 0.17594792,0.17594792 0 0 0 -0.0619,-0.33734 l -0.98716,-0.0471 1.08718,-1.27608 a 0.17647708,0.17647708 0 0 0 -0.21934,-0.26882 l -1.46844,0.80381 0.12488,-0.51039 a 0.17568333,0.17568333 0 0 0 -0.31141,-0.14737 l -0.35296,0.47625 -0.5625,-1.35308 a 0.1762125,0.1762125 0 0 0 -0.20002,-0.10583 0.31009167,0.31009167 0 0 0 -0.0304,0.009 0.17436042,0.17436042 0 0 0 -0.10795,0.16986 l 0.0529,1.35837 -0.44079,-0.34396 a 0.1793875,0.1793875 0 0 0 -0.12594,-0.037 0.18335625,0.18335625 0 0 0 -0.0955,0.0394 0.17436042,0.17436042 0 0 0 -0.0439,0.2159 l 0.254,0.49583 -1.24354,-0.2204 a 0.17647708,0.17647708 0 0 0 -0.16086,0.29343 0.15187083,0.15187083 0 0 0 0.036,0.0291 l 1.07738,0.67495 -0.67363,0.26459 a 0.17647708,0.17647708 0 0 0 0.0685,0.34078 l 0.74427,-0.019 -0.93768,1.36049 a 0.17541875,0.17541875 0 0 0 -0.0156,0.17198 0.1698625,0.1698625 0 0 0 0.0349,0.0505 0.17436042,0.17436042 0 0 0 0.20902,0.0325 l 0.0135,-0.008 1.35704,-0.88476 v 1.33006 a 0.17594792,0.17594792 0 0 0 0.33629,0.073 l 0.57229,-1.25359 2.13175,1.57533 a 0.17541875,0.17541875 0 0 0 0.2495,-0.23945 z m -2.32622,-1.66185 a 0.17568333,0.17568333 0 0 0 -0.14843,-0.0291 0.17145,0.17145 0 0 0 -0.11589,0.0979 l -0.40375,0.88477 v -0.99748 a 0.17568333,0.17568333 0 0 0 -0.27199,-0.14738 l -1.03108,0.67231 0.72522,-1.05251 a 0.17409583,0.17409583 0 0 0 0.0101,-0.18336 0.17700625,0.17700625 0 0 0 -0.15875,-0.0921 l -0.29686,0.008 0.25982,-0.10239 a 0.17753542,0.17753542 0 0 0 0.11139,-0.14737 0.17224375,0.17224375 0 0 0 -0.082,-0.16537 l -0.75195,-0.47069 0.87128,0.15293 a 0.17674167,0.17674167 0 0 0 0.18785,-0.254 l -0.11668,-0.22728 0.21484,0.16748 a 0.17965208,0.17965208 0 0 0 0.18891,0.018 0.17647708,0.17647708 0 0 0 0.0955,-0.16298 l -0.037,-0.94456 0.38444,0.92604 a 0.17568333,0.17568333 0 0 0 0.30347,0.037 l 0.12356,-0.16642 -0.0484,0.19553 a 0.17647708,0.17647708 0 0 0 0.25638,0.19685 l 1.13559,-0.62178 -0.8218,0.96573 a 0.1762125,0.1762125 0 0 0 0.12594,0.29105 l 0.71279,0.0336 -0.82867,0.35745 a 0.17568333,0.17568333 0 0 0 -0.0765,0.25982 l 1.17502,1.74863 z"
       inkscape:connector-curvature="0"
       style="fill:#ffffff;stroke-width:0.26458332" />
  </g>
</svg>
