<?xml version="1.0" encoding="UTF-8" standalone="no"?>
<!-- Created with Inkscape (http://www.inkscape.org/) -->

<svg
   xmlns:dc="http://purl.org/dc/elements/1.1/"
   xmlns:cc="http://creativecommons.org/ns#"
   xmlns:rdf="http://www.w3.org/1999/02/22-rdf-syntax-ns#"
   xmlns:svg="http://www.w3.org/2000/svg"
   xmlns="http://www.w3.org/2000/svg"
   xmlns:sodipodi="http://sodipodi.sourceforge.net/DTD/sodipodi-0.dtd"
   xmlns:inkscape="http://www.inkscape.org/namespaces/inkscape"
   width="12mm"
   height="12mm"
   viewBox="0 0 12 12"
   version="1.1"
   id="svg8"
   inkscape:version="0.92.4 (5da689c313, 2019-01-14)">
  <defs
     id="defs2">
    <style
       id="style851">
            .cls-1{fill:#fff}
        </style>
  </defs>
  <sodipodi:namedview
     id="base"
     pagecolor="#ffffff"
     bordercolor="#666666"
     borderopacity="1.0"
     inkscape:pageopacity="0.0"
     inkscape:pageshadow="2"
     inkscape:zoom="28.655748"
     inkscape:cx="21.405142"
     inkscape:cy="20.023716"
     inkscape:document-units="mm"
     inkscape:current-layer="layer1-6"
     showgrid="false"
     inkscape:window-width="3840"
     inkscape:window-height="2115"
     inkscape:window-x="-13"
     inkscape:window-y="-13"
     inkscape:window-maximized="1" />
  <metadata
     id="metadata5">
    <rdf:RDF>
      <cc:Work
         rdf:about="">
        <dc:format>image/svg+xml</dc:format>
        <dc:type
           rdf:resource="http://purl.org/dc/dcmitype/StillImage" />
        <dc:title></dc:title>
      </cc:Work>
    </rdf:RDF>
  </metadata>
  <g
     inkscape:label="Layer 1"
     inkscape:groupmode="layer"
     id="layer1"
     transform="translate(0,-285)">
    <g
       transform="translate(0.13056717,-0.00396859)"
       id="layer1-6"
       inkscape:label="Layer 1">
      <circle
         r="5.9473171"
         cy="291.01648"
         cx="5.8995924"
         id="path848"
         style="opacity:0.98000004;fill:#bb5cf7;fill-opacity:1;stroke:#ffffff;stroke-width:0.10536566;stroke-miterlimit:4;stroke-dasharray:none;stroke-opacity:1;paint-order:fill markers stroke" />
      <g
         id="g835"
         transform="matrix(0.26458333,0,0,0.26458333,1.7888598,286.10171)" />
      <g
         transform="matrix(0.24492904,0,0,0.23804688,-6.9751612,277.67839)"
         id="Interventions">
        <path
           class="cls-1"
           d="m 69.507,55.232 c -2.266,-1.474 -4.423,-2.877 -6.7,-4.36 1,-0.36 1.879,-0.683 2.877,-1.043 -0.4,-0.683 -0.71,-1.34 -1.124,-1.924 A 14.5,14.5 0 1 0 49.592,70.2 14.6,14.6 0 0 0 65.55,62.378 a 7.631,7.631 0 0 1 0.5,-0.971 1.816,1.816 0 0 1 2.454,-0.683 1.724,1.724 0 0 1 0.845,2.212 15.8,15.8 0 0 1 -3.924,5.964 18.267,18.267 0 1 1 3.452,-21 c 0.306,0.638 0.611,0.773 1.241,0.512 0.647,-0.261 1.34,-0.423 2.167,-0.674 -0.935,2.562 -1.843,4.976 -2.778,7.494 z"
           id="Tracé_3858"
           inkscape:connector-curvature="0"
           style="fill:#ffffff" />
        <path
           transform="translate(-150.72,-72.999)"
           class="cls-1"
           d="m 210.328,134.128 c -1,-1.16 -2.032,-2.293 -3.012,-3.47 a 1.948,1.948 0 0 1 -0.423,-1.1 3.95,3.95 0 0 0 -0.98,-2.356 2.332,2.332 0 0 1 -0.548,-1.178 c -0.18,-2.14 -0.288,-4.289 -0.423,-6.428 a 1.584,1.584 0 0 0 -1.591,-1.7 c -0.908,0 -1.483,0.611 -1.555,1.654 -0.144,2.167 -0.252,4.333 -0.432,6.5 a 1.908,1.908 0 0 1 -0.477,1.07 3.36,3.36 0 0 0 -0.728,3.911 3.168,3.168 0 0 0 3.416,2.023 7.007,7.007 0 0 1 1.214,0.62 c 1.133,0.89 2.23,1.834 3.345,2.733 a 1.585,1.585 0 1 0 2.194,-2.284 z m -6.923,-2.931 a 1.542,1.542 0 1 1 1.51,-1.546 1.578,1.578 0 0 1 -1.51,1.549 z"
           id="Tracé_3859"
           inkscape:connector-curvature="0"
           style="fill:#ffffff" />
      </g>
    </g>
  </g>
</svg>
