<?xml version="1.0" encoding="UTF-8" standalone="no"?>
<!-- Created with Inkscape (http://www.inkscape.org/) -->

<svg
   xmlns:dc="http://purl.org/dc/elements/1.1/"
   xmlns:cc="http://creativecommons.org/ns#"
   xmlns:rdf="http://www.w3.org/1999/02/22-rdf-syntax-ns#"
   xmlns:svg="http://www.w3.org/2000/svg"
   xmlns="http://www.w3.org/2000/svg"
   xmlns:sodipodi="http://sodipodi.sourceforge.net/DTD/sodipodi-0.dtd"
   xmlns:inkscape="http://www.inkscape.org/namespaces/inkscape"
   width="12mm"
   height="12mm"
   viewBox="0 0 12 12"
   version="1.1"
   id="svg8"
   inkscape:version="0.92.4 (5da689c313, 2019-01-14)">
  <defs
     id="defs2">
    <style
       id="style917">
            .cls-1{fill:#fff}
        </style>
  </defs>
  <sodipodi:namedview
     id="base"
     pagecolor="#ffffff"
     bordercolor="#666666"
     borderopacity="1.0"
     inkscape:pageopacity="0.0"
     inkscape:pageshadow="2"
     inkscape:zoom="40.525347"
     inkscape:cx="22.677165"
     inkscape:cy="22.677165"
     inkscape:document-units="mm"
     inkscape:current-layer="layer1-6"
     showgrid="false"
     inkscape:window-width="3840"
     inkscape:window-height="2115"
     inkscape:window-x="-13"
     inkscape:window-y="-13"
     inkscape:window-maximized="1" />
  <metadata
     id="metadata5">
    <rdf:RDF>
      <cc:Work
         rdf:about="">
        <dc:format>image/svg+xml</dc:format>
        <dc:type
           rdf:resource="http://purl.org/dc/dcmitype/StillImage" />
        <dc:title></dc:title>
      </cc:Work>
    </rdf:RDF>
  </metadata>
  <g
     inkscape:label="Layer 1"
     inkscape:groupmode="layer"
     id="layer1"
     transform="translate(0,-285)">
    <g
       transform="translate(-0.10784918,-0.0228811)"
       id="layer1-2"
       inkscape:label="Layer 1">
      <g
         inkscape:label="Layer 1"
         id="layer1-6"
         transform="translate(0.13056717,-0.00396859)">
        <g
           transform="matrix(0.26458333,0,0,0.26458333,1.7888598,286.10171)"
           id="g835">
          <g
             transform="matrix(0.72996359,0,0,0.71999301,0.41876416,3.0360402)"
             style="fill:none;stroke:#ffffff;stroke-width:3px"
             id="g829">
            <circle
               style="stroke:none"
               cx="21"
               cy="21"
               r="21"
               id="circle825" />
            <circle
               cx="21"
               cy="21"
               r="19.5"
               id="circle827" />
          </g>
          <text
             transform="scale(0.86437961,1.1568991)"
             y="10.004533"
             x="17.806925"
             style="font-weight:700;font-size:8.77879715px;font-family:Montserrat-Bold, Montserrat;fill:#ffffff;stroke-width:0.67529207"
             font-size="13px"
             font-weight="700"
             id="text833">
            <tspan
               style="stroke-width:0.67529207"
               x="7.452673"
               y="18.783329"
               id="tspan831">MSA</tspan>
          </text>
        </g>
        <circle
           style="opacity:0.98000004;fill:#0cd085;fill-opacity:1;stroke:#0cd085;stroke-width:0.55371749;stroke-miterlimit:4;stroke-dasharray:none;stroke-opacity:1;paint-order:fill markers stroke"
           id="path861"
           cx="5.9818883"
           cy="291.03528"
           r="5.7231412" />
        <g
           transform="matrix(0.22306557,0,0,0.19541149,-10.463272,287.19188)"
           id="PDM">
          <g
             transform="translate(58.908)"
             id="Groupe_4023">
            <g
               id="Groupe_4022">
              <path
                 transform="translate(-58.908,-31.99)"
                 class="cls-1"
                 d="m 86.711,34.738 h -6.043 l 0.408,1.887 a 2.162,2.162 0 0 1 0.021,0.7 h 4.32 V 67.818 H 61.493 V 37.325 h 4.321 a 2.18,2.18 0 0 1 0.023,-0.7 l 0.408,-1.884 H 60.2 a 1.293,1.293 0 0 0 -1.292,1.293 v 33.08 A 1.293,1.293 0 0 0 60.2,70.405 H 86.71 A 1.3,1.3 0 0 0 88,69.112 v -33.08 a 1.294,1.294 0 0 0 -1.289,-1.294 z"
                 id="Tracé_3860"
                 inkscape:connector-curvature="0"
                 style="fill:#ffffff" />
              <path
                 transform="translate(-214.168,-140.852)"
                 class="cls-1"
                 d="M 237.632,152.949 H 228.8 a 1.293,1.293 0 1 0 0,2.586 h 8.835 a 1.293,1.293 0 1 0 0,-2.586 z"
                 id="Tracé_3861"
                 inkscape:connector-curvature="0"
                 style="fill:#ffffff" />
              <path
                 transform="translate(-214.168,-233.223)"
                 class="cls-1"
                 d="M 237.632,253.254 H 228.8 a 1.294,1.294 0 0 0 0,2.587 h 8.835 a 1.294,1.294 0 0 0 0,-2.587 z"
                 id="Tracé_3862"
                 inkscape:connector-curvature="0"
                 style="fill:#ffffff" />
              <path
                 transform="translate(-109.407,-102.884)"
                 class="cls-1"
                 d="m 114.2,115.285 a 1.294,1.294 0 0 0 -0.155,1.823 l 1.887,2.236 a 1.291,1.291 0 0 0 0.988,0.459 h 0.1 a 1.292,1.292 0 0 0 1,-0.611 l 3.394,-5.5 a 1.293,1.293 0 0 0 -2.2,-1.359 l -2.457,3.976 -0.736,-0.871 a 1.291,1.291 0 0 0 -1.821,-0.153 z"
                 id="Tracé_3863"
                 inkscape:connector-curvature="0"
                 style="fill:#ffffff" />
              <path
                 transform="translate(-128.231,-225.709)"
                 class="cls-1"
                 d="m 136.126,245.094 a 1.939,1.939 0 1 0 1.939,1.939 1.94,1.94 0 0 0 -1.939,-1.939 z"
                 id="Tracé_3864"
                 inkscape:connector-curvature="0"
                 style="fill:#ffffff" />
              <path
                 transform="translate(-214.168,-323.569)"
                 class="cls-1"
                 d="M 237.632,351.359 H 228.8 a 1.293,1.293 0 1 0 0,2.586 h 8.835 a 1.293,1.293 0 1 0 0,-2.586 z"
                 id="Tracé_3865"
                 inkscape:connector-curvature="0"
                 style="fill:#ffffff" />
              <path
                 transform="translate(-128.231,-316.054)"
                 class="cls-1"
                 d="m 136.126,343.2 a 1.939,1.939 0 1 0 1.939,1.939 1.94,1.94 0 0 0 -1.939,-1.939 z"
                 id="Tracé_3866"
                 inkscape:connector-curvature="0"
                 style="fill:#ffffff" />
              <path
                 transform="translate(-154.071)"
                 class="cls-1"
                 d="M 163.132,5.98 H 174.1 a 0.887,0.887 0 0 0 0.868,-1.076 L 174.064,0.7 A 0.889,0.889 0 0 0 173.2,0 h -9.155 a 0.889,0.889 0 0 0 -0.868,0.7 l -0.91,4.2 a 0.9,0.9 0 0 0 0.178,0.746 0.885,0.885 0 0 0 0.687,0.334 z"
                 id="Tracé_3867"
                 inkscape:connector-curvature="0"
                 style="fill:#ffffff" />
            </g>
          </g>
        </g>
      </g>
    </g>
  </g>
</svg>
